<svg xmlns="http://www.w3.org/2000/svg" version="1.1" xmlns:xlink="http://www.w3.org/1999/xlink" xmlns:svgjs="http://svgjs.dev/svgjs" width="1000" height="1125" viewBox="0 0 1000 1125"><g transform="matrix(1,0,0,1,1.7053025658242404e-13,0)"><svg viewBox="0 0 320 360" data-background-color="#fdf8f1" preserveAspectRatio="xMidYMid meet" height="1125" width="1000" xmlns="http://www.w3.org/2000/svg" xmlns:xlink="http://www.w3.org/1999/xlink"><g id="tight-bounds" transform="matrix(1,0,0,1,0,0)"><svg viewBox="0 0 320 360" height="360" width="320"><g><svg></svg></g><g><svg viewBox="0 0 320 360" height="360" width="320"><g><path xmlns="http://www.w3.org/2000/svg" d="M20.961 227.22l3.726 4.658-1.863-6.056c-0.466-2.795-3.726 0.466-1.863 1.398M25.153 224.425c1.397 2.329 2.795 4.658 2.795 6.987 0 3.261 2.795 4.658 5.123 5.589-3.261-3.726-5.124-13.974-7.918-12.576M204.017 26.929c7.918 0 15.371-0.932 23.756 0.931 20.495 5.124 37.729 15.371 49.374 29.811l32.606 52.169c1.397 13.042 4.192 27.482 3.726 43.319 3.261 0 2.795-4.658 6.521-5.59-3.726 9.316-5.59 20.961-6.521 34.469-2.329-7.453 0-18.632 0.466-24.687-3.261 5.124-5.124 1.397-5.124-0.932 0.466-3.726-1.397-3.261-2.795-4.658-5.124-4.658-8.384-9.782-12.11-17.7 2.329-6.055 2.795-14.905-4.658-19.563-2.329-1.397-5.124-3.726-6.521-7.453-1.863-5.124-5.124-11.179-4.193-19.097 0.466-2.329-6.987 5.124-11.179 1.863-18.166-12.576-36.332-27.016-58.224-39.127-11.645 0-20.029-4.192-24.221-9.316-3.726-4.658-0.932-10.713 4.658-11.179 3.261 0 6.987-0.932 9.782 0.932 0.466-1.863 2.329-4.192 4.657-4.192M157.904 16.215l0.932 0.466c4.658 0.932 6.987 7.453 12.11 5.124 0 3.261 0.466 6.521-0.466 8.85-1.397 3.726-5.59 3.726-8.85 3.726-31.208-1.863-49.374 11.179-68.471 22.358-5.124 3.261-10.713 5.59-14.906 9.782-20.029 18.632-41.921 35.866-47.045 70.335l-4.192 38.195c-0.466 4.192-5.124 8.384-4.192 13.508l3.26 22.824c-3.261-3.261-5.124 0.932-4.192 2.795 0.466 1.397 2.329 6.055 5.124 1.863 3.726 6.987 7.453 20.495 12.576 26.55 15.837 18.632 36.332 35.4 53.101 52.169 4.192-0.932 7.453-0.932 8.384-3.727 1.397 2.795-1.397 5.59-3.726 6.056 7.453 4.658 15.837 8.85 27.016 9.781 14.44 0.932 27.948 3.261 40.524 6.522 6.521-1.863 13.042-2.795 20.029-3.261 2.329 0 3.726-3.726 6.521-4.658l0.466-4.658c2.795 4.192 2.329-1.397 0.466-4.192 3.261 2.795 4.192 5.124 5.589 6.987 0-1.397 3.726-6.521 3.727-0.466l0.931-6.055c1.397-0.932 1.863 5.124 3.261 0.931 1.397-4.192 4.192-0.932 6.987-2.329-0.932 1.863-0.466 5.59 2.794 3.261l3.727-3.261c2.329 5.59 6.055 3.261 7.918 2.329 20.495-13.042 40.99-28.413 60.553-43.784l-0.466 6.055 2.329-7.453c2.329 2.329 4.192 0.466 5.124-0.931 2.795-4.658 6.521-9.316 12.577-13.508-7.453 20.029-16.303 35.866-27.482 48.908l-4.658 5.59c0 3.261-0.932 7.453-4.658 7.918-1.863 0.466-5.59-0.932-8.384 1.863-1.397 1.863 3.261 5.59-0.466 2.795-3.261-2.329-6.521 0-10.248 0.932-2.795 0.932 1.863 3.726 2.795 5.589 0.932 1.863 1.863 3.726 1.398 6.056l-5.124-5.59c-6.055 3.261-9.782 9.316-14.906 13.974-2.329 1.863-1.397 5.124-1.397 7.918-3.261 0-6.987-0.932-8.85 0.932-1.397 1.863-0.932 4.658-0.932 7.453-4.658-0.466-5.124-7.453-9.315-6.056-4.192 0.932-8.85 1.397-12.577 3.727 2.795 5.59-4.658 2.329-3.726 3.26-6.987-4.192-13.042-7.453-20.495-4.658-15.837-5.124-35.4-2.795-49.84-0.931 0-2.329 0.466-4.658-0.466-5.124-0.932 2.329-3.726 1.397-3.26 1.397-8.85-6.055-17.7-9.782-27.016-14.905-8.384 0.932-16.303-3.261-18.632-5.59-6.521-6.055-13.974-2.795-20.029-4.192-13.042-3.261-17.7-16.769-19.098-26.084-0.932-4.658-4.658-6.521-6.055-6.056-6.055-19.563-15.371-37.263-22.824-55.429-1.863-4.658-1.397-9.316-1.397-14.44 2.329 0.932 4.658 0.466 4.192-2.794-2.329-15.371-7.918-27.016-13.974-38.195 3.261-15.837 3.726-34.469 11.179-48.443 6.521-12.576 18.632-19.098 27.016-29.811 2.795-3.726 2.795-8.85 5.59-12.11 9.316-9.316 18.632-19.098 28.879-27.482 4.658-3.726 10.247 0 17.234-1.397 2.329-8.384 11.645-15.837 20.495-13.508 3.726 0.932 11.179-8.85 13.508-9.782 3.726-1.397 1.863 3.726 1.863 6.987 8.85-6.987 20.961-10.713 32.14-14.906" fill="#fa4238" fill-rule="nonzero" stroke="none" stroke-width="1" stroke-linecap="butt" stroke-linejoin="miter" stroke-miterlimit="10" stroke-dasharray="" stroke-dashoffset="0" font-family="none" font-weight="none" font-size="none" text-anchor="none" style="mix-blend-mode: normal" data-fill-palette-color="tertiary"></path></g><g transform="matrix(1,0,0,1,64,129.89403690805534)"><svg viewBox="0 0 192 100.21192618388935" height="100.21192618388935" width="192"><g><svg viewBox="0 0 192 100.21192618388935" height="100.21192618388935" width="192"><g><svg viewBox="0 0 192 100.21192618388935" height="100.21192618388935" width="192"><g transform="matrix(1,0,0,1,0,60.56994082994305)"><svg viewBox="0 0 192 39.641985353946296" height="39.641985353946296" width="192"><g id="textblocktransform"><svg viewBox="0 0 192 39.641985353946296" height="39.641985353946296" width="192" id="textblock"><g><svg viewBox="0 0 192 39.641985353946296" height="39.641985353946296" width="192"><g transform="matrix(1,0,0,1,0,0)"><svg width="192" viewBox="1.6100000143051147 -38.09000015258789 240.02999877929688 49.560001373291016" height="39.641985353946296" data-palette-color="#fa4238"><path d="M6.23-0.17L6.23-0.17Q5.32 0.49 4.16 0.49 3 0.49 2.31-0.11 1.61-0.71 1.61-1.49 1.61-2.27 1.86-2.64L1.86-2.64Q2.56-2.22 4.1-2.22L4.1-2.22Q4.71-2.22 5.44-2.84 6.18-3.47 6.62-4.57L6.62-4.57 6.62-16.02Q6.62-17.16 6.13-17.72L6.13-17.72Q5.4-18.6 3.64-19.46L3.64-19.46Q5.42-20.31 5.88-20.87L5.88-20.87Q6.62-21.8 6.62-22.95L6.62-22.95 6.64-33.59Q6.05-35.13 4.05-35.13L4.05-35.13Q3.03-35.13 2.54-34.72L2.54-34.72Q2.29-35.03 2.29-35.55 2.29-36.06 2.51-36.47 2.73-36.89 3.13-37.21L3.13-37.21Q3.96-37.84 5.35-37.84 6.74-37.84 7.64-37.04L7.64-37.04Q8.45-37.84 9.52-37.84 10.6-37.84 11.35-36.94L11.35-36.94Q12.3-37.84 13.04-37.84 13.77-37.84 14.16-37.72 14.55-37.6 14.94-37.26L14.94-37.26Q15.72-36.65 16.58-34.79L16.58-34.79 25.93-15.38 33.64-34.4 34.33-35.99Q34.94-37.33 35.47-37.59 36.01-37.84 36.73-37.84 37.45-37.84 38.21-37.3L38.21-37.3Q39.14-37.84 40.64-37.84 42.14-37.84 43.24-37.04L43.24-37.04Q44.21-37.84 45.28-37.84 46.34-37.84 46.94-37.67 47.53-37.5 47.97-37.21L47.97-37.21Q48.9-36.55 48.9-35.57L48.9-35.57Q48.9-35.08 48.63-34.72L48.63-34.72Q48.1-35.13 47.27-35.13L47.27-35.13Q45.41-35.13 44.75-33.4L44.75-33.4 44.75-22.95Q44.75-21.75 45.26-21.17L45.26-21.17Q46.07-20.21 47.73-19.46L47.73-19.46Q45.95-18.58 45.46-18.02L45.46-18.02Q44.75-17.14 44.75-16.02L44.75-16.02 44.75-4.08Q45.58-2.22 47.75-2.22L47.75-2.22Q48.58-2.22 49.12-2.64L49.12-2.64Q49.39-2.27 49.39-1.79 49.39-1.32 49.11-0.9 48.83-0.49 48.34-0.2L48.34-0.2Q47.22 0.49 45.78 0.49 44.34 0.49 43.09-0.29L43.09-0.29Q41.94 0.49 40.48 0.49L40.48 0.49Q38.92 0.49 37.72-0.29L37.72-0.29Q36.47 0.49 35.41 0.49 34.35 0.49 33.67 0.31 32.98 0.12 32.47-0.2L32.47-0.2Q31.42-0.83 31.42-1.78L31.42-1.78Q31.42-2.27 31.69-2.64L31.69-2.64Q32.23-2.22 33.06-2.22L33.06-2.22Q35.23-2.22 36.06-4.08L36.06-4.08 36.06-30.76 26.54-7.18 25.49-4.79Q24.73-3.08 24.43-2.86 24.12-2.64 23.93-2.64L23.93-2.64Q23.32-2.64 23.07-2.76L23.07-2.76 10.03-28.47 10.03-4.59Q10.5-3.47 11.3-2.84 12.11-2.22 13.11-2.22 14.11-2.22 14.82-2.64L14.82-2.64Q15.09-2.2 15.09-1.43 15.09-0.66 14.33-0.09 13.57 0.49 12.38 0.49 11.18 0.49 10.18-0.12L10.18-0.12Q9.3 0.49 8.17 0.49 7.03 0.49 6.23-0.17ZM21.92-13.65L13.48-30.54Q13.23-30.18 13.23-29.49L13.23-29.49Q13.23-27.51 14.89-24.24L14.89-24.24 23.78-6.49Q23.95-6.71 23.95-7.42L23.95-7.42Q23.95-9.55 21.92-13.65L21.92-13.65ZM38.4-30.52L38.4-6.47Q39.62-6.93 39.75-9.67L39.75-9.67Q39.89-12.4 39.89-17.24 39.89-22.07 39.88-23.67 39.87-25.27 39.84-26.25L39.84-26.25Q39.77-29.13 39.29-29.72 38.82-30.32 38.4-30.52L38.4-30.52ZM9.72-5.86L9.69-6.15Q9.69-5.96 9.72-5.86L9.72-5.86ZM6.93-5.86L6.96-6.15Q6.93-6.05 6.93-5.86L6.93-5.86ZM70.36-2.32L70.36-2.32Q68.14 0.61 63.69 0.61L63.69 0.61Q58.27 0.61 55.56-2.64L55.56-2.64Q54.39-4.03 53.95-5.74L53.95-5.74Q53.71-6.76 53.1-7.31 52.49-7.86 51.58-8.3L51.58-8.3Q53.34-9.11 54.1-11.33L54.1-11.33Q54.9-13.67 56.78-14.72L56.78-14.72Q58.81-15.82 61.25-15.88 63.69-15.94 64.87-16.04 66.04-16.14 66.94-16.36L66.94-16.36Q68.63-16.75 69.58-17.8L69.58-17.8 69.58-21.46Q69.58-23.88 68.59-25 67.6-26.12 65.59-26.12 63.57-26.12 62.61-25.38 61.64-24.63 61.64-23.39L61.64-23.39Q61.64-21.48 63.6-21.53L63.6-21.53Q63.21-19.63 61.55-19.63L61.55-19.63Q61.06-19.63 60.59-19.8L60.59-19.8 60.59-19.73Q60.59-19.09 61.18-18.92L61.18-18.92Q60.57-17.99 59.13-18.02 57.69-18.04 56.88-19.56L56.88-19.56Q56.52-19.46 56.04-19.46 55.56-19.46 54.99-19.78 54.42-20.09 54.07-20.65L54.07-20.65Q55.3-21.39 55.56-22.92L55.56-22.92Q55.86-24.8 58.57-26.73L58.57-26.73Q61.84-29.05 66.92-29.05L66.92-29.05Q75.34-29.05 77.19-23.88L77.19-23.88Q77.81-22.14 77.81-19.78L77.81-19.78 77.81-17.8Q77.81-16.6 78.4-15.84 79-15.09 80.44-14.6L80.44-14.6Q78.9-13.89 78.46-13.33L78.46-13.33Q77.81-12.48 77.81-11.38L77.81-11.38 77.81-4.05Q78.51-2.22 79.83-2.22L79.83-2.22Q80.66-2.22 81.2-2.64L81.2-2.64Q81.54-2.17 81.54-1.48 81.54-0.78 80.84-0.15 80.15 0.49 78.76 0.49 77.37 0.49 76.17-0.29L76.17-0.29Q75.12 0.49 74.3 0.49 73.48 0.49 72.89 0.33 72.29 0.17 71.77-0.17L71.77-0.17Q70.63-0.93 70.36-2.32ZM71.9-22.73L71.9-6.47Q73.31-7.03 73.39-11.87L73.39-11.87Q73.39-12.89 73.39-14.21 73.39-15.53 73.37-16.47 73.36-17.41 73.34-18.26L73.34-18.26Q73.24-21.34 72.78-21.94 72.31-22.53 71.9-22.73L71.9-22.73ZM62.89-8.2L62.89-8.2Q62.89-7.18 63.11-6.2 63.33-5.22 63.77-4.49L63.77-4.49Q64.74-2.95 66.53-2.95L66.53-2.95Q67.87-2.95 68.75-4.05L68.75-4.05Q69.58-5.13 69.58-6.81L69.58-6.81 69.58-14.77Q68.02-13.87 65.57-13.53L65.57-13.53Q62.89-13.11 62.89-8.2ZM59.23-2.71L59.23-2.71Q59.47-2.88 59.47-3.15L59.47-3.15Q59.47-3.52 59.13-4.17L59.13-4.17Q57.91-6.42 57.91-7.86 57.91-9.3 58.02-9.94 58.13-10.57 58.31-11.02 58.49-11.47 58.73-11.82 58.96-12.16 59.13-12.43L59.13-12.43Q59.45-12.99 59.45-13.2 59.45-13.4 59.23-13.55L59.23-13.55Q58.23-13.09 57.76-12.45L57.76-12.45Q56.93-11.33 56.54-9.55L56.54-9.55Q56.44-9.03 54.83-8.3L54.83-8.3Q56.39-7.59 56.54-7.06L56.54-7.06Q57.37-4.15 59.23-2.71ZM104.98-7.37L104.98-7.37Q105.51-8.4 106.95-8.4L106.95-8.4Q107.93-8.4 108.47-7.59L108.47-7.59Q108.91-6.96 108.91-6.04 108.91-5.13 108.45-4.2 108-3.27 107.25-2.51 106.49-1.76 105.5-1.17 104.51-0.59 103.39-0.2L103.39-0.2Q101.12 0.61 98.65 0.61 96.19 0.61 93.99-0.26 91.79-1.12 90.2-2.69L90.2-2.69Q87.01-5.83 86.35-11.13L86.35-11.13Q86.18-12.33 85.79-12.84L85.79-12.84Q85.05-13.75 83.37-14.58L83.37-14.58Q85.96-15.75 86.35-18.8L86.35-18.8Q86.98-23.46 90.5-26.17L90.5-26.17Q93.87-28.81 98.7-28.81L98.7-28.81Q102.88-28.81 105.73-26.27L105.73-26.27Q108.44-23.88 108.44-20.73L108.44-20.73Q108.44-18.95 109.69-18.46L109.69-18.46Q108.95-17.26 107.64-17.26L107.64-17.26Q107.17-17.26 106.78-17.36L106.78-17.36Q105.93-16.11 104.32-15.67L104.32-15.67Q103.8-15.55 103.34-15.55 102.88-15.55 102.24-15.73 101.61-15.92 101.36-16.24L101.36-16.24Q102.07-16.53 102.19-17.7L102.19-17.7Q102.05-17.68 101.92-17.68L101.92-17.68 101.73-17.68Q100.07-17.68 99.68-19.58L99.68-19.58Q101.48-19.58 102.31-20.97L102.31-20.97Q102.61-21.46 102.61-22.17L102.61-22.17Q102.61-23.73 101.61-24.62 100.61-25.51 98.82-25.51L98.82-25.51Q94.7-25.51 94.7-20.19L94.7-20.19 94.7-8.33Q94.7-4.17 97.87-3.08L97.87-3.08Q98.8-2.73 99.97-2.73 101.14-2.73 102.11-3.03 103.07-3.32 103.73-3.83L103.73-3.83Q105.07-4.88 105.07-6.49L105.07-6.49Q105.07-6.98 104.98-7.37ZM90.62-6.47L90.62-6.47Q90.96-6.74 90.96-7.08L90.96-7.08Q90.96-7.62 90.74-8.45L90.74-8.45Q89.74-12.28 89.74-13.78 89.74-15.28 89.84-16.13 89.94-16.97 90.11-17.82L90.11-17.82Q90.4-19.48 90.74-20.75L90.74-20.75Q90.96-21.58 90.96-21.88L90.96-21.88Q90.96-22.46 90.62-22.73L90.62-22.73Q89.59-21.51 89.06-19.46 88.52-17.41 88.18-15.84L88.18-15.84Q88.06-15.21 86.74-14.6L86.74-14.6Q88.06-13.99 88.18-13.35L88.18-13.35Q89.08-9.23 89.67-8.11 90.25-6.98 90.62-6.47ZM123.36-0.29L123.36-0.29Q122.11 0.49 120.52 0.49 118.94 0.49 117.69-0.29L117.69-0.29Q116.45 0.49 115.39 0.49 114.32 0.49 113.64 0.31 112.96 0.12 112.44-0.2L112.44-0.2Q111.39-0.83 111.39-1.78L111.39-1.78Q111.39-2.27 111.66-2.64L111.66-2.64Q112.2-2.22 113.03-2.22L113.03-2.22Q115.2-2.22 116.03-4.08L116.03-4.08 116.03-16.02Q116.03-17.14 115.57-17.68L115.57-17.68Q114.84-18.58 113.05-19.46L113.05-19.46Q114.71-20.21 115.2-20.8L115.2-20.8Q116.03-21.75 116.03-22.95L116.03-22.95 116.03-33.25Q115.2-35.13 113.03-35.13L113.03-35.13Q112.2-35.13 111.66-34.72L111.66-34.72Q111.39-35.08 111.39-35.56 111.39-36.04 111.67-36.45 111.96-36.87 112.44-37.16L112.44-37.16Q113.57-37.84 115.02-37.84 116.47-37.84 117.69-37.04L117.69-37.04Q118.96-37.84 120.52-37.84 122.09-37.84 123.36-37.04L123.36-37.04Q126.12-38.09 129.47-38.09 132.83-38.09 135.1-37.48 137.37-36.87 139.01-35.74L139.01-35.74Q142.3-33.47 143.11-29.42L143.11-29.42Q143.43-27.61 145.43-26.68L145.43-26.68Q143.52-25.61 142.94-23.27L142.94-23.27Q141.74-18.43 136.96-17.24L136.96-17.24Q139.42-16.58 140.98-14.53L140.98-14.53Q142.6-12.4 142.6-9.52L142.6-9.52 142.6-7.08Q142.6-3.56 144.87-2.54L144.87-2.54Q145.55-2.22 146.35-2.22 147.16-2.22 147.7-2.64L147.7-2.64Q147.97-2.27 147.97-1.79 147.97-1.32 147.72-0.9 147.48-0.49 147.06-0.2L147.06-0.2Q146.18 0.49 145.01 0.49 143.84 0.49 142.72-0.15L142.72-0.15Q140.67 0.98 138.88 0.07L138.88 0.07Q138.2 0.49 137.44 0.49 136.69 0.49 135.99 0.15 135.3-0.2 134.76-0.98L134.76-0.98Q133.61-2.66 133.61-6.15L133.61-6.15 133.61-7.96Q133.61-13.6 130.39-15.28L130.39-15.28Q129.31-15.84 127.87-15.84L127.87-15.84 125.02-15.84 125.02-3.96Q125.68-2.22 127.53-2.22L127.53-2.22Q128.36-2.22 128.9-2.64L128.9-2.64Q129.17-2.27 129.17-1.56 129.17-0.85 128.4-0.18 127.63 0.49 126.09 0.49 124.55 0.49 123.36-0.29ZM129.7-34.84L129.7-34.84Q125.02-34.84 125.02-31.2L125.02-31.2 125.02-21.22Q125.02-19.95 126.02-19.51L126.02-19.51Q126.97-19.09 128.84-19.09 130.71-19.09 131.45-19.3 132.19-19.51 132.73-20.02L132.73-20.02Q133.83-21.07 133.83-23.54L133.83-23.54 133.83-30.66Q133.83-33.72 131.29-34.57L131.29-34.57Q130.53-34.84 129.7-34.84ZM135.47-33.28L135.47-33.28Q136.22-31.57 136.22-27.81L136.22-27.81Q136.22-21.34 135.61-20.07L135.61-20.07Q136.96-20.34 137.54-23.66L137.54-23.66 137.74-24.66Q138.01-26.25 139.3-26.68L139.3-26.68Q138.35-27 138.08-27.44L138.08-27.44Q137.79-27.95 137.55-29.19 137.32-30.42 137.08-31.18 136.83-31.93 136.56-32.37L136.56-32.37Q136.1-33.15 135.47-33.28ZM118.38-9.64L118.38-6.47Q119.6-6.93 119.72-9.67L119.72-9.67Q119.87-12.4 119.87-17.24 119.87-22.07 119.85-23.67 119.84-25.27 119.82-26.25L119.82-26.25Q119.74-29.13 119.27-29.72 118.79-30.32 118.38-30.52L118.38-30.52Q118.38-22.02 118.08-20.85L118.08-20.85Q117.74-19.87 116.42-19.46L116.42-19.46Q117.89-18.95 118.08-18.21L118.08-18.21Q118.38-17.04 118.38-9.64L118.38-9.64ZM135.22-13.16L135.22-13.16Q136.2-12.06 136.2-10.47L136.2-10.47 136.2-7.25Q136.2-3.2 137.81-2.93L137.81-2.93Q138.25-2.86 138.66-2.95L138.66-2.95Q137.79-4.32 137.79-5.83L137.79-5.83 137.79-9.25Q137.79-11.18 137.25-11.99L137.25-11.99Q136.32-13.35 135.22-13.16ZM178.31-25.17L178.31-25.17Q177.77-25.51 176.6-25.51L176.6-25.51Q174.26-25.51 173.06-22.34L173.06-22.34 172.3-20.21Q171.47-17.9 171.46-17.04 171.45-16.19 171.76-15.66 172.06-15.14 173.13-14.58L173.13-14.58Q170.5-13.84 169.55-12.11L169.55-12.11Q169.25-11.57 169.03-10.99L169.03-10.99 164.98 0.02Q162.61 6.84 160.59 9.25L160.59 9.25Q158.73 11.47 155.95 11.47L155.95 11.47Q153.82 11.47 151.94 10.11L151.94 10.11Q149.79 8.57 149.79 6.49L149.79 6.49Q149.79 5.2 150.48 4.53 151.16 3.86 151.74 3.86 152.31 3.86 152.53 3.87 152.75 3.88 152.97 3.96L152.97 3.96Q153.41 4.15 153.8 4.83L153.8 4.83Q153.29 5.81 154.46 6.98L154.46 6.98Q155.56 8.13 156.52 8.13 157.49 8.13 158.13 7.76 158.78 7.4 159.29 6.64L159.29 6.64Q160.41 4.98 160.41 1.88L160.41 1.88Q160.41 0.2 159.51-1.83L159.51-1.83Q159.27-2.51 158.93-3.27L158.93-3.27 155.46-11.08Q154.9-12.33 153.76-13.29 152.63-14.26 151.21-14.58L151.21-14.58Q152.9-15.43 152.9-16.82L152.9-16.82Q152.9-17.82 152.09-19.78L152.09-19.78 150.65-23.24Q150.01-24.66 149.6-25.02L149.6-25.02Q148.87-25.61 147.9-25.61 146.94-25.61 146.4-25.2L146.4-25.2Q146.11-25.49 146.1-26.05 146.08-26.61 146.23-26.99 146.38-27.37 146.72-27.66L146.72-27.66Q147.45-28.32 148.83-28.32 150.21-28.32 151.43-27.44L151.43-27.44Q152.43-28.32 153.87-28.32 155.31-28.32 156.41-27.51L156.41-27.51Q157.51-28.32 158.88-28.32 160.24-28.32 161.04-27.67 161.83-27.03 161.86-26.39L161.86-26.39Q161.88-25.44 161.54-25.1L161.54-25.1Q160.95-25.54 160.32-25.54 159.68-25.54 159.28-25.17 158.88-24.8 158.93-23.97L158.93-23.97 164.57-8.74 169.91-24.39Q169.64-25.63 168.13-25.63L168.13-25.63Q167.18-25.63 166.32-25.17L166.32-25.17Q166.08-25.63 166.09-26.37 166.1-27.1 166.77-27.71 167.45-28.32 168.61-28.32 169.77-28.32 170.6-27.54L170.6-27.54Q171.47-28.32 172.57-28.32 173.67-28.32 174.57-27.64L174.57-27.64Q175.41-28.32 176.42-28.32 177.43-28.32 178.03-27.73 178.63-27.15 178.6-26.51L178.6-26.51Q178.55-25.54 178.31-25.17ZM159.29-12.08L154.8-22.73Q154.24-22.36 154.25-21.8 154.26-21.24 154.3-20.94 154.34-20.63 154.43-20.21L154.43-20.21Q154.65-19.43 155.32-17.91 156-16.38 156.03-16 156.07-15.63 155.78-15.17 155.48-14.72 155.07-14.58L155.07-14.58Q156.63-14.28 157-13.48L157-13.48Q157.17-13.13 157.49-12.4L157.49-12.4 159.15-8.69Q159.63-7.57 160.17-6.47L160.17-6.47Q161.17-7.69 159.29-12.08L159.29-12.08ZM196.25-2.32L196.25-2.32Q194.03 0.61 189.59 0.61L189.59 0.61Q184.17 0.61 181.46-2.64L181.46-2.64Q180.29-4.03 179.85-5.74L179.85-5.74Q179.6-6.76 178.99-7.31 178.38-7.86 177.48-8.3L177.48-8.3Q179.24-9.11 179.99-11.33L179.99-11.33Q180.8-13.67 182.68-14.72L182.68-14.72Q184.7-15.82 187.15-15.88 189.59-15.94 190.76-16.04 191.93-16.14 192.83-16.36L192.83-16.36Q194.52-16.75 195.47-17.8L195.47-17.8 195.47-21.46Q195.47-23.88 194.48-25 193.49-26.12 191.48-26.12 189.47-26.12 188.5-25.38 187.54-24.63 187.54-23.39L187.54-23.39Q187.54-21.48 189.49-21.53L189.49-21.53Q189.1-19.63 187.44-19.63L187.44-19.63Q186.95-19.63 186.49-19.8L186.49-19.8 186.49-19.73Q186.49-19.09 187.07-18.92L187.07-18.92Q186.46-17.99 185.02-18.02 183.58-18.04 182.78-19.56L182.78-19.56Q182.41-19.46 181.93-19.46 181.46-19.46 180.88-19.78 180.31-20.09 179.97-20.65L179.97-20.65Q181.19-21.39 181.46-22.92L181.46-22.92Q181.75-24.8 184.46-26.73L184.46-26.73Q187.73-29.05 192.81-29.05L192.81-29.05Q201.23-29.05 203.09-23.88L203.09-23.88Q203.7-22.14 203.7-19.78L203.7-19.78 203.7-17.8Q203.7-16.6 204.3-15.84 204.89-15.09 206.34-14.6L206.34-14.6Q204.8-13.89 204.36-13.33L204.36-13.33Q203.7-12.48 203.7-11.38L203.7-11.38 203.7-4.05Q204.41-2.22 205.72-2.22L205.72-2.22Q206.55-2.22 207.09-2.64L207.09-2.64Q207.43-2.17 207.43-1.48 207.43-0.78 206.74-0.15 206.04 0.49 204.65 0.49 203.26 0.49 202.06-0.29L202.06-0.29Q201.01 0.49 200.2 0.49 199.38 0.49 198.78 0.33 198.18 0.17 197.67-0.17L197.67-0.17Q196.52-0.93 196.25-2.32ZM197.79-22.73L197.79-6.47Q199.21-7.03 199.28-11.87L199.28-11.87Q199.28-12.89 199.28-14.21 199.28-15.53 199.27-16.47 199.26-17.41 199.23-18.26L199.23-18.26Q199.13-21.34 198.67-21.94 198.21-22.53 197.79-22.73L197.79-22.73ZM188.78-8.2L188.78-8.2Q188.78-7.18 189-6.2 189.22-5.22 189.66-4.49L189.66-4.49Q190.64-2.95 192.42-2.95L192.42-2.95Q193.76-2.95 194.64-4.05L194.64-4.05Q195.47-5.13 195.47-6.81L195.47-6.81 195.47-14.77Q193.91-13.87 191.47-13.53L191.47-13.53Q188.78-13.11 188.78-8.2ZM185.12-2.71L185.12-2.71Q185.36-2.88 185.36-3.15L185.36-3.15Q185.36-3.52 185.02-4.17L185.02-4.17Q183.8-6.42 183.8-7.86 183.8-9.3 183.91-9.94 184.02-10.57 184.2-11.02 184.39-11.47 184.62-11.82 184.85-12.16 185.02-12.43L185.02-12.43Q185.34-12.99 185.34-13.2 185.34-13.4 185.12-13.55L185.12-13.55Q184.12-13.09 183.65-12.45L183.65-12.45Q182.82-11.33 182.43-9.55L182.43-9.55Q182.34-9.03 180.72-8.3L180.72-8.3Q182.29-7.59 182.43-7.06L182.43-7.06Q183.26-4.15 185.12-2.71ZM215.07-0.29L215.07-0.29Q213.95 0.49 212.51 0.49 211.07 0.49 210.42-0.18 209.78-0.85 209.78-1.46L209.78-1.46Q209.78-2.27 210.04-2.64L210.04-2.64Q210.58-2.22 211.41-2.22L211.41-2.22Q212.97-2.22 213.44-3.74L213.44-3.74 213.44-11.33Q213.44-12.4 212.97-12.89L212.97-12.89Q212.27-13.7 210.46-14.58L210.46-14.58Q212.17-15.36 212.63-15.82L212.63-15.82Q213.44-16.63 213.44-17.8L213.44-17.8 213.44-21.36Q213.44-23.44 212.02-23.61L212.02-23.61Q211.61-23.66 210.97-23.66 210.34-23.66 209.8-23.24L209.8-23.24Q209.46-23.71 209.46-24.21 209.46-24.71 209.71-25.33 209.97-25.95 210.48-26.51L210.48-26.51Q211.78-27.83 213.47-27.83 215.17-27.83 216.29-27.29L216.29-27.29Q217.64-28.81 219.03-28.81 220.42-28.81 220.96-28.16 221.49-27.51 221.49-26.17L221.49-26.17 221.49-23.88Q222.76-26.15 224.96-27.48 227.16-28.81 229.62-28.81 232.09-28.81 233.59-28.16 235.09-27.51 236.07-26.32L236.07-26.32Q237.97-23.95 237.97-19.43L237.97-19.43 237.97-17.82Q237.97-16.65 238.49-16.14L238.49-16.14Q239.24-15.36 240.95-14.58L240.95-14.58Q239.12-13.67 238.66-13.21L238.66-13.21Q237.97-12.45 237.97-11.38L237.97-11.38 237.97-3.74Q238.44-2.22 240-2.22L240-2.22Q240.83-2.22 241.37-2.64L241.37-2.64Q241.64-2.27 241.64-1.56 241.64-0.85 240.99-0.18 240.34 0.49 239 0.49 237.66 0.49 236.56-0.27L236.56-0.27Q235.58 0.49 234.27 0.49 232.97 0.49 231.94-0.24L231.94-0.24Q230.87 0.49 229.65 0.49 228.43 0.49 227.72-0.12 227.01-0.73 227.01-1.88L227.01-1.88Q227.01-2.42 227.38-2.73L227.38-2.73Q227.94-2.29 228.5-2.29L228.5-2.29Q229.57-2.29 230.04-3.49L230.04-3.49 230.04-18.04Q230.04-22.78 227.72-23.54L227.72-23.54Q226.96-23.78 226.08-23.78 225.2-23.78 224.45-23.43 223.69-23.07 223.08-22.44L223.08-22.44Q221.74-21.02 221.49-19.07L221.49-19.07 221.49-3.49Q221.96-2.29 223.03-2.29L223.03-2.29Q223.59-2.29 224.15-2.73L224.15-2.73Q224.52-2.42 224.52-1.57 224.52-0.73 223.81-0.12 223.11 0.49 221.95 0.49 220.79 0.49 219.83-0.24L219.83-0.24Q218.91 0.49 217.56 0.49 216.22 0.49 215.07-0.29ZM232.38-15.77L232.38-6.47Q233.6-6.93 233.73-9.67L233.73-9.67Q233.87-12.4 233.87-14.82 233.87-17.24 233.68-18.81 233.48-20.39 233.11-21.28 232.75-22.17 232.25-22.57 231.75-22.97 231.16-23.27L231.16-23.27Q232.09-21.07 232.24-19.26 232.38-17.46 232.38-15.77L232.38-15.77ZM217.18-11.87Q217.2-12.67 217.21-13.22 217.22-13.77 217.22-14.11 217.22-14.45 217.22-14.81 217.22-15.16 217.21-15.75 217.2-16.33 217.18-17.04 217.17-17.75 217.12-18.43L217.12-18.43Q217.05-20.12 216.9-20.75L216.9-20.75Q216.61-22.17 215.78-22.71L215.78-22.71 215.78-21.12Q215.78-17.02 215.6-16.3 215.41-15.58 215.01-15.21 214.61-14.84 213.83-14.58L213.83-14.58Q215.29-14.06 215.49-13.35L215.49-13.35Q215.78-12.18 215.78-8.08L215.78-8.08 215.78-6.49Q216.9-7.23 217.07-9.47L217.07-9.47Q217.17-11.06 217.18-11.87Z" opacity="1" transform="matrix(1,0,0,1,0,0)" fill="#fa4238" class="undefined-text-0" data-fill-palette-color="primary" id="text-0"></path></svg></g></svg></g></svg></g></svg></g><g transform="matrix(1,0,0,1,68.62096898898017,0)"><svg viewBox="0 0 54.758062022039674 54.78522375915379" height="54.78522375915379" width="54.758062022039674"><g><svg xmlns:dc="http://purl.org/dc/elements/1.1/" xmlns:cc="http://creativecommons.org/ns#" xmlns:rdf="http://www.w3.org/1999/02/22-rdf-syntax-ns#" xmlns:svg="http://www.w3.org/2000/svg" xmlns="http://www.w3.org/2000/svg" xmlns:sodipodi="http://sodipodi.sourceforge.net/DTD/sodipodi-0.dtd" xmlns:inkscape="http://www.inkscape.org/namespaces/inkscape" preserveAspectRatio="xMidYMid" viewBox="0 0 63 63.03125" version="1.1" x="0" y="0" height="54.78522375915379" width="54.758062022039674" class="icon-icon-0" data-fill-palette-color="accent" id="icon-0"><path d="M9.5 0C4.253 0 0 4.25 0 9.5L0 53.531C0 58.781 4.253 63.031 9.5 63.031L53.5 63.031C58.747 63.031 63 58.781 63 53.531L63 9.5C63 4.25 58.747 0 53.5 0L9.5 0zM10 3L17 3 17 60.031 10 60.031 10 3zM20 3L35 3 35 60.031 20 60.031 20 3zM38 3L53.5 3C57.09 3 60 5.908 60 9.5L60 53.531C60 57.123 57.09 60.031 53.5 60.031L38 60.031 38 3zM6.969 3.5C6.978 3.496 6.991 3.504 7 3.5L7 59.531C4.653 58.55 3 56.236 3 53.531L3 9.5C3 6.806 4.636 4.487 6.969 3.5z" fill="#fa4238" fill-rule="evenodd" data-fill-palette-color="accent"></path></svg></g></svg></g><g></g></svg></g></svg></g></svg></g></svg></g><defs></defs></svg><rect width="320" height="360" fill="none" stroke="none" visibility="hidden"></rect></g></svg></g></svg>